/* XPM */
static char * babiloo_xpm[] = {
"32 32 334 2",
"  	c None",
". 	c #58595D",
"+ 	c #72767F",
"@ 	c #636770",
"# 	c #5F616B",
"$ 	c #61636E",
"% 	c #4B4D55",
"& 	c #5F6065",
"* 	c #757985",
"= 	c #7B7E88",
"- 	c #6E727D",
"; 	c #6A6D78",
"> 	c #81848C",
", 	c #6F717C",
"' 	c #696B75",
") 	c #62646E",
"! 	c #575961",
"~ 	c #595A63",
"{ 	c #515259",
"] 	c #6F7177",
"^ 	c #717581",
"/ 	c #6E717C",
"( 	c #878992",
"_ 	c #ACADB1",
": 	c #B9BABC",
"< 	c #B8B9BB",
"[ 	c #AAAAAE",
"} 	c #64656F",
"| 	c #63656E",
"1 	c #62646D",
"2 	c #5E5F67",
"3 	c #54545C",
"4 	c #4D4D55",
"5 	c #4F4F57",
"6 	c #70727A",
"7 	c #6F737E",
"8 	c #7E818A",
"9 	c #71747F",
"0 	c #7B7D87",
"a 	c #747781",
"b 	c #84868E",
"c 	c #93949A",
"d 	c #898B91",
"e 	c #686A73",
"f 	c #898A90",
"g 	c #84858C",
"h 	c #6A6B74",
"i 	c #74757D",
"j 	c #5D5E67",
"k 	c #5C5D66",
"l 	c #5C5C65",
"m 	c #5C5B65",
"n 	c #404047",
"o 	c #696B72",
"p 	c #6A6D75",
"q 	c #6D717B",
"r 	c #72757F",
"s 	c #676A74",
"t 	c #686B75",
"u 	c #73757F",
"v 	c #7A7C85",
"w 	c #6B6C76",
"x 	c #808189",
"y 	c #5E606A",
"z 	c #5B5C65",
"A 	c #75767E",
"B 	c #5B5B64",
"C 	c #7A7A81",
"D 	c #6C6C74",
"E 	c #6D6B64",
"F 	c #68696F",
"G 	c #6E727C",
"H 	c #666974",
"I 	c #B4B4B7",
"J 	c #96989D",
"K 	c #767880",
"L 	c #7E7F87",
"M 	c #64656E",
"N 	c #62636C",
"O 	c #5D5E68",
"P 	c #61626B",
"Q 	c #7A7B83",
"R 	c #5E5E67",
"S 	c #707078",
"T 	c #5F5F68",
"U 	c #5A5A63",
"V 	c #55555E",
"W 	c #444345",
"X 	c #ACA894",
"Y 	c #757983",
"Z 	c #6C6F79",
"` 	c #666874",
" .	c #B2B3B6",
"..	c #797B84",
"+.	c #666872",
"@.	c #63656F",
"#.	c #8D8F94",
"$.	c #8B8C92",
"%.	c #5F616A",
"&.	c #5E5F68",
"*.	c #5D5D67",
"=.	c #595962",
"-.	c #606068",
";.	c #36363E",
">.	c #999586",
",.	c #AFAC9C",
"'.	c #67696F",
").	c #70747F",
"!.	c #6D6F7A",
"~.	c #6B6E79",
"{.	c #676A75",
"].	c #B4B4B8",
"^.	c #85868D",
"/.	c #87888F",
"(.	c #8F9196",
"_.	c #939399",
":.	c #9E9EA3",
"<.	c #666770",
"[.	c #43434A",
"}.	c #828074",
"|.	c #AEAA9A",
"1.	c #BFBCAC",
"2.	c #343333",
"3.	c #787A81",
"4.	c #6C707B",
"5.	c #787A83",
"6.	c #85888F",
"7.	c #B2B2B5",
"8.	c #74767F",
"9.	c #656770",
"0.	c #83848A",
"a.	c #A6A6AA",
"b.	c #5A5B65",
"c.	c #585861",
"d.	c #505058",
"e.	c #535252",
"f.	c #B3B09F",
"g.	c #B9B6A6",
"h.	c #ADAAA1",
"i.	c #141519",
"j.	c #64676F",
"k.	c #72747C",
"l.	c #6B6D78",
"m.	c #696B76",
"n.	c #666973",
"o.	c #646570",
"p.	c #8C8D93",
"q.	c #7D7E86",
"r.	c #8D8E93",
"s.	c #B3B3B6",
"t.	c #7C7C83",
"u.	c #696971",
"v.	c #84848A",
"w.	c #818187",
"x.	c #5D5D66",
"y.	c #797980",
"z.	c #78787F",
"A.	c #57575F",
"B.	c #424246",
"C.	c #B9B6A4",
"D.	c #BBB8A8",
"E.	c #C3C0B3",
"F.	c #37373F",
"G.	c #6D6F77",
"H.	c #6B6E77",
"I.	c #6A6C76",
"J.	c #666771",
"K.	c #64666F",
"L.	c #63646E",
"M.	c #5F606A",
"N.	c #5A5C66",
"O.	c #5E5E68",
"P.	c #575861",
"Q.	c #97979C",
"R.	c #53535C",
"S.	c #5E5E66",
"T.	c #89898E",
"U.	c #89898F",
"V.	c #565660",
"W.	c #383840",
"X.	c #A09D91",
"Y.	c #BEBBAC",
"Z.	c #CDCABA",
"`.	c #666569",
" +	c #737377",
".+	c #5E6068",
"++	c #696B74",
"@+	c #656771",
"#+	c #656772",
"$+	c #656670",
"%+	c #62626C",
"&+	c #60616B",
"*+	c #5E6069",
"=+	c #62626B",
"-+	c #7B7B82",
";+	c #9C9CA0",
">+	c #76767D",
",+	c #484850",
"'+	c #7E7C76",
")+	c #C3C0B1",
"!+	c #C9C7B8",
"~+	c #9A9996",
"{+	c #161618",
"]+	c #A1A19C",
"^+	c #E5E3D9",
"/+	c #B4B3AB",
"(+	c #818080",
"_+	c #5C5C61",
":+	c #606169",
"<+	c #5F5F69",
"[+	c #5D5C65",
"}+	c #575761",
"|+	c #515159",
"1+	c #525153",
"2+	c #CDCBBC",
"3+	c #CCC9BC",
"4+	c #C1BFB5",
"5+	c #303138",
"6+	c #92918E",
"7+	c #FFFDF3",
"8+	c #FCFAF0",
"9+	c #E9E7DE",
"0+	c #BBB9B1",
"a+	c #81807F",
"b+	c #5B5B5E",
"c+	c #57585F",
"d+	c #575760",
"e+	c #3C3C42",
"f+	c #C9C6B8",
"g+	c #CFCDC0",
"h+	c #E1DFD0",
"i+	c #56565C",
"j+	c #959493",
"k+	c #FEFCF2",
"l+	c #FDFBF1",
"m+	c #EBE9E0",
"n+	c #C0BEB6",
"o+	c #838281",
"p+	c #5F5E60",
"q+	c #53535A",
"r+	c #44444B",
"s+	c #ABA9A0",
"t+	c #D2D0C3",
"u+	c #E0DDD0",
"v+	c #7E7D80",
"w+	c #151517",
"x+	c #4F4F55",
"y+	c #FFFFFB",
"z+	c #FAF8EE",
"A+	c #F9F7ED",
"B+	c #C1BFB6",
"C+	c #868583",
"D+	c #626163",
"E+	c #4E4E56",
"F+	c #53535B",
"G+	c #4B4B53",
"H+	c #6E6D6C",
"I+	c #DDDACD",
"J+	c #DCD9CE",
"K+	c #C5C3BD",
"L+	c #2F2F35",
"M+	c #4B4C55",
"N+	c #A3A29F",
"O+	c #FFFFFE",
"P+	c #F7F5EB",
"Q+	c #FBF9F0",
"R+	c #F9F6EC",
"S+	c #FDFCF2",
"T+	c #FBF9EF",
"U+	c #E8E7DD",
"V+	c #C1BFB8",
"W+	c #898885",
"X+	c #656566",
"Y+	c #48484F",
"Z+	c #555559",
"`+	c #E3E1D4",
" @	c #E3E0D5",
".@	c #E1DED4",
"+@	c #3F3F48",
"@@	c #6F6F74",
"#@	c #323237",
"$@	c #979697",
"%@	c #A7A5A2",
"&@	c #FFFFFC",
"*@	c #F3F1E7",
"=@	c #F3F1E8",
"-@	c #FEFCF3",
";@	c #F4F1E8",
">@	c #E5E3DB",
",@	c #D0CDC5",
"'@	c #C0BEB5",
")@	c #E7E4D9",
"!@	c #F4F1E6",
"~@	c #75747A",
"{@	c #7B7B7F",
"]@	c #38383E",
"^@	c #999899",
"/@	c #A6A5A1",
"(@	c #FFFFF9",
"_@	c #FAF8EF",
":@	c #F7F5EC",
"<@	c #EFEDE4",
"[@	c #FFFFF5",
"}@	c #F6F4EA",
"|@	c #F9F7EC",
"1@	c #E5E3D8",
"2@	c #F4F1E7",
"3@	c #A6A5A5",
"4@	c #2E2E33",
"5@	c #7E7E83",
"6@	c #424248",
"7@	c #979797",
"8@	c #A8A7A3",
"9@	c #FFFFF6",
"0@	c #FCFAF1",
"a@	c #EBEAE0",
"b@	c #F8F6EC",
"c@	c #F3F2E8",
"d@	c #DAD8D3",
"e@	c #3B3B43",
"f@	c #77777B",
"g@	c #4B4B51",
"h@	c #AFAEAA",
"i@	c #FDFAF0",
"j@	c #F1EFE6",
"k@	c #FFFFF7",
"l@	c #68686C",
"m@	c #919191",
"n@	c #B7B5B1",
"o@	c #828286",
"p@	c #29282C",
"q@	c #5C5C60",
"r@	c #66666D",
"s@	c #414148",
"                                                                ",
"                                                                ",
"                                                                ",
"                                                                ",
"                                                                ",
"                            . + @ # $ %                         ",
"                          & * = - ; > , ' ) ! ~ {               ",
"                        ] ^ / ( ; _ : < [ ) } | } 1 2 3 4 5     ",
"                      6 7 8 9 0 a b c d e f g h i j k l m n     ",
"                  o p 7 q r s t s u v w x y z A B C D B 4 E     ",
"                F r G q H I J K L ) M N O P Q R S T U V W X     ",
"              & Y / Z `  ...+.@.#.$.P %.&.*.l l =.B -.;.>.,.    ",
"            '.).!.~.{.].^./.(._.:.<.&.*.l B l l B l [.}.|.1.2.  ",
"          3.4.Z 5.6.7.8.9.} 0.a.b.k c.B U B l l l d.e.f.g.h.i.  ",
"      j.k.; l.m.n.o.p.q.r.$.s.t.u.v.w.x.y.z.B l A.B.C.D.E.F.    ",
"    G.H.; I.t n.J.K.L.M.N.O.P.S Q.R.S.T.U.V.l B W.X.Y.Z.`.      ",
"  /  +.+++@+#+$+L.%+&+*+R l B =+v.-+;+>+U B l ,+'+)+!+~+{+      ",
"    ]+^+/+(+_+:+O <+&.[+z l l l l B }+U l l |+1+2+3+4+5+        ",
"    6+7+7+8+9+0+a+b+c+d+B l l l l l l l l d+e+f+g+h+i+          ",
"    j+k+l+7+7+7+8+m+n+o+p+q+V U l l B B B r+s+t+u+v+w+          ",
"    x+y+z+8+k+l+7+k+7+A+m+B+C+D+E+F+=.l G+H+I+J+K+L+            ",
"    M+N+O+k+z+P+Q+k+R+S+T+7+P+U+V+W+X+Y+Z+`+ @.@+@              ",
"      @@#@$@%@&@T+P+*@z+T+=@-@A+7+;@>@,@'@)@!@~@                ",
"            {@]@^@/@(@_@:@<@A+:@=@[@}@|@1@2@3@4@                ",
"                  5@6@7@8@9@0@P+a@T+P+b@c@d@e@                  ",
"                        f@g@j+h@[@i@A+j@k@S.                    ",
"                              l@q+m@n@k@o@p@                    ",
"                                    q@r@s@                      ",
"                                                                ",
"                                                                ",
"                                                                ",
"                                                                "};
