<?xml version="1.0" encoding="UTF-8" standalone="no"?>
<!-- Created with Inkscape (http://www.inkscape.org/) -->

<svg
   xmlns:dc="http://purl.org/dc/elements/1.1/"
   xmlns:cc="http://creativecommons.org/ns#"
   xmlns:rdf="http://www.w3.org/1999/02/22-rdf-syntax-ns#"
   xmlns:svg="http://www.w3.org/2000/svg"
   xmlns="http://www.w3.org/2000/svg"
   xmlns:sodipodi="http://sodipodi.sourceforge.net/DTD/sodipodi-0.dtd"
   xmlns:inkscape="http://www.inkscape.org/namespaces/inkscape"
   width="744.09448819"
   height="1052.3622047"
   id="svg2"
   version="1.1"
   inkscape:version="0.48.1 r9760"
   sodipodi:docname="New document 1">
  <defs
     id="defs4">
    <filter
       inkscape:collect="always"
       id="filter3844">
      <feGaussianBlur
         inkscape:collect="always"
         stdDeviation="5.7445504"
         id="feGaussianBlur3846" />
    </filter>
  </defs>
  <sodipodi:namedview
     id="base"
     pagecolor="#ffffff"
     bordercolor="#666666"
     borderopacity="1.0"
     inkscape:pageopacity="0.0"
     inkscape:pageshadow="2"
     inkscape:zoom="0.7"
     inkscape:cx="401.05764"
     inkscape:cy="520"
     inkscape:document-units="px"
     inkscape:current-layer="layer1"
     showgrid="false"
     inkscape:snap-page="true"
     inkscape:window-width="1366"
     inkscape:window-height="744"
     inkscape:window-x="0"
     inkscape:window-y="24"
     inkscape:window-maximized="1" />
  <metadata
     id="metadata7">
    <rdf:RDF>
      <cc:Work
         rdf:about="">
        <dc:format>image/svg+xml</dc:format>
        <dc:type
           rdf:resource="http://purl.org/dc/dcmitype/StillImage" />
        <dc:title></dc:title>
      </cc:Work>
    </rdf:RDF>
  </metadata>
  <g
     inkscape:label="Layer 1"
     inkscape:groupmode="layer"
     id="layer1">
    <text
       xml:space="preserve"
       style="font-size:72.95989227px;font-style:normal;font-weight:normal;line-height:125%;letter-spacing:0px;word-spacing:0px;fill:#000000;fill-opacity:1;stroke:none;font-family:Sans"
       x="114.87277"
       y="630.3623"
       id="text2985"
       sodipodi:linespacing="125%"
       transform="scale(0.99209441,1.0079686)"><tspan
         sodipodi:role="line"
         id="tspan2987"
         x="114.87277"
         y="630.3623">NepoHMI</tspan></text>
    <g
       id="g3848"
       transform="translate(124.28571,84.285714)">
      <path
         transform="scale(0.85090212,1)"
         sodipodi:nodetypes="ccccccsccccccc"
         inkscape:connector-curvature="0"
         id="path2998-3"
         d="M 75.990513,429.44473 C 302.6493,312.08297 302.6493,312.08297 302.6493,312.08297 l 68.00891,0.56372 -53.30874,32.3994 c 121.88017,-33.82797 3.3033,8.27019 121.88017,-33.82797 l 117.78374,-5.18116 c 0,0 71.37312,-9.25761 -34.28944,56.42951 -80.8821,50.28189 -185.48753,39.01889 -185.48753,39.01889 l -110.5104,68.50615 -110.99726,1.8076 L 255.9209,402.18895 48.654267,466.27175 0,470.78876 z"
         style="fill:#b3b3b3;stroke:#000000;stroke-width:1.08407712px;stroke-linecap:butt;stroke-linejoin:miter;stroke-opacity:1;filter:url(#filter3844)" />
      <path
         sodipodi:nodetypes="ccccccsccccccc"
         inkscape:connector-curvature="0"
         id="path2998"
         d="M -27.14286,395.21931 C -30.00001,180.93359 1.42856,186.64788 1.42856,186.64788 l 95.71429,0 40,162.85714 5.71429,-165.71428 184.28571,1.42857 c 0,0 7.14285,-10 47.14286,101.42857 21.25914,59.22189 -148.57142,51.42857 -148.57142,51.42857 L 228.57142,470.93359 110,472.36217 60,326.64788 65.71428,472.36217 0,472.36217 z"
         style="fill:#000080;stroke:#000000;stroke-width:1px;stroke-linecap:butt;stroke-linejoin:miter;stroke-opacity:1" />
    </g>
    <path
       sodipodi:type="arc"
       style="opacity:0.39259261;fill:#00ff00;fill-opacity:1;stroke:none"
       id="path3010"
       sodipodi:cx="430.71429"
       sodipodi:cy="225.93361"
       sodipodi:rx="52.142857"
       sodipodi:ry="36.42857"
       d="m 482.85715,225.93361 a 52.142857,36.42857 0 1 1 -104.28571,0 52.142857,36.42857 0 1 1 104.28571,0 z"
       transform="matrix(0.89041096,0,0,1,-8.5127194,117.14285)" />
    <rect
       style="opacity:0.39259261;fill:#b3b3b3;fill-opacity:1;stroke:none"
       id="rect3852"
       width="585.7865"
       height="464.28525"
       x="44.245827"
       y="217.4852"
       transform="matrix(0.9999776,-0.00669305,0.0063797,0.99997965,0,0)" />
  </g>
</svg>
